<?xml version="1.0" encoding="utf-8"?>
<svg xmlns="http://www.w3.org/2000/svg" viewBox="0 0 48 48">
<g fill="#ee7623">
    <path d="M34.7,36.5c-2.4,1.3-4.6,2.2-10.7,2.2s-8.3-0.8-10.7-2.2c-0.7-0.4-1.3-0.8-1.8-1.4H5.1c0.3,1.8,1.3,3.3,2.8,4.4
        c3.4,2.5,7.3,4.1,16.2,4.1s12.8-1.6,16.2-4.1c1.5-1,2.5-2.6,2.8-4.4h-6.4C36,35.7,35.4,36.1,34.7,36.5z"/>
    <path d="M37.5,14.2V20l4.8,8.6h0.8V14.4H46v-4H34.2v3.8H37.5z"/>
    <path d="M10.6,20v-5.8h3.3v-3.8H2v4h2.9v14.2h0.8L10.6,20z"/>
    <path d="M27.5,5l14,24.9h4.4v3.9H29.6v-3.9h5.2l-3.2-5.7H16.8l-3.2,5.6h4.8v4H2.1v-3.9h4.4L20.5,5L27.5,5z M19,20.1h10.3l-5.1-9
        L19,20.1z"/>
</g>
</svg>
