<?xml version="1.0" encoding="utf-8"?>
<svg xmlns="http://www.w3.org/2000/svg" viewBox="0 0 48 48">
<g fill="#E11937">
<path d="M13,17.9c-4,0-6.4,3.1-6.4,6.3c0,3.8,3.1,6.3,6.5,6.3
	c2.2,0,4.4-1,6.2-2.6v4.7c-1.9,1.1-4.5,1.8-6.5,1.8C7,34.4,2.1,29.7,2.1,24.2C2.1,18.4,7,14,12.8,14c2.2,0,4.8,0.7,6.5,1.5v4.6
	C17.1,18.7,15,17.9,13,17.9L13,17.9z"/>
<path d="M31.5,34.4c-5.8,0-10.7-4.5-10.7-10.2c0-5.7,4.9-10.2,11-10.2
	c2.2,0,5,0.6,6.6,1.4v4.6c-1.9-1.1-4.4-2-6.6-2c-4,0-6.6,3.1-6.6,6.3c0,3.7,3.1,6.4,6.6,6.4c0.8,0,1.5-0.1,2.4-0.4v-3.7h-3.3v-3.9
	h7.5v10.3C36.4,33.9,34,34.4,31.5,34.4z"/>
<path d="M41.8,34V14.4H46V34L41.8,34z"/>    
</g>
</svg>
