<svg xmlns="http://www.w3.org/2000/svg" viewBox="0 0 48 48">
  <g fill="currentColor">        
    <path d="M43,24.63c0,.13,0,.27,0,.41,0,4.44-6.94,8-15.5,8S12,29.48,12,25c0-4,5.74-7.37,13.21-7.94-.89-.06-1.79-.1-2.71-.1C10.63,17,1,21.92,1,28s9.63,11,21.5,11S44,34.08,44,28A6.26,6.26,0,0,0,43,24.63Z"/>
    <path d="M46.5,16.77C46.05,13.48,42.66,11,38,10L32,19.77a6.45,6.45,0,0,0-2.53-.5c-2.49,0-4.5,1.28-4.5,2.87S27,25,29.5,25,34,23.72,34,22.14a2.25,2.25,0,0,0-.85-1.67l13.37-2.54A5,5,0,0,0,46.5,16.77Z"/>
  </g>
</svg>