<svg xmlns="http://www.w3.org/2000/svg" viewBox="0 0 48 48">
<g fill="currentColor">
<g>
<path d="M25,9c6.5,0.3,11.9,5.6,12.2,12.1c0.1,3.4-1.1,6.6-3.2,9V30h-2.3c2.6-2.2,4.1-5.7,3.7-9.4
	c-0.5-5.4-5.1-9.6-10.5-9.9c-6.3-0.3-11.5,4.8-11.5,11c0,3.3,1.5,6.3,3.7,8.3H15v0.1c-2-2.2-3.2-5.2-3.2-8.4
	C11.8,14.5,17.8,8.8,25,9z"/>
<path d="M10.9,34.4l1.5-1.5c0.2,0.2,0.3,0.3,0.5,0.5l-1.5,1.5C11.2,34.7,11,34.6,10.9,34.4L10.9,34.4z M36.8,34.9
	l-1.5-1.5c0.2-0.1,0.3-0.3,0.5-0.5l1.5,1.5C37.1,34.6,37,34.7,36.8,34.9L36.8,34.9z M41.9,26.8l-2-0.5c0.1-0.2,0.1-0.4,0.2-0.6
	l2,0.5C42,26.3,41.9,26.6,41.9,26.8L41.9,26.8z M42.2,17.2l-2,0.5c0-0.2-0.1-0.4-0.2-0.6l2-0.5C42.1,16.7,42.2,16.9,42.2,17.2
	L42.2,17.2z M37.6,8.6l-1.5,1.5c-0.2-0.2-0.3-0.3-0.5-0.5l1.5-1.5C37.3,8.3,37.5,8.4,37.6,8.6L37.6,8.6z M29.3,3.5l-0.5,2
	c-0.2-0.1-0.4-0.1-0.6-0.2l0.5-2C28.9,3.4,29.1,3.4,29.3,3.5L29.3,3.5z M19.5,3.3l0.5,2c-0.2,0.1-0.4,0.1-0.6,0.2l-0.5-2
	C19.1,3.4,19.3,3.4,19.5,3.3L19.5,3.3z M11,8.1l1.5,1.5c-0.2,0.2-0.3,0.3-0.5,0.5l-1.5-1.5C10.7,8.4,10.9,8.3,11,8.1L11,8.1z
	 M6.1,16.5l2,0.5c-0.1,0.2-0.1,0.4-0.2,0.6l-2-0.5C6,16.9,6.1,16.7,6.1,16.5L6.1,16.5z M6.1,26.1l2-0.5c0.1,0.2,0.1,0.4,0.2,0.6
	l-2,0.5C6.3,26.6,6.2,26.3,6.1,26.1z"/>
<path d="M5.7,31.8l4.7-2.7c0.1,0.2,0.2,0.4,0.3,0.6L6,32.4C5.9,32.2,5.8,32,5.7,31.8L5.7,31.8z M42.2,32.4l-4.7-2.7
	c0.1-0.2,0.2-0.4,0.3-0.6l4.7,2.7C42.4,32,42.3,32.2,42.2,32.4L42.2,32.4z M45.3,22h-5.4c0-0.3,0-0.5,0.1-0.7V21h5v0.3
	c0.3,0.2,0.3,0.4,0.3,0.5V22z M42.7,11.2L38,13.9c-0.1-0.2-0.2-0.4-0.3-0.6l4.7-2.7C42.5,10.8,42.6,11,42.7,11.2L42.7,11.2z
	 M35.1,3.2l-2.7,4.7c-0.2-0.1-0.4-0.2-0.6-0.3l2.7-4.7C34.7,3,34.9,3.1,35.1,3.2L35.1,3.2z M24,0.2v5.4c0.3,0,0.2,0,0.1,0
	c-0.1,0-0.2,0,0.9,0V0.2C23.9,0.1,24,0.1,24,0.2c0.2,0,0.3,0,0.4,0H24z M13.7,2.9l2.7,4.7c-0.2,0.1-0.4,0.2-0.6,0.3l-2.7-4.7
	C13.3,3.1,13.5,3,13.7,2.9L13.7,2.9z M5.8,10.6l4.7,2.7c-0.1,0.2-0.2,0.4-0.3,0.6l-4.7-2.7C5.6,11,5.7,10.8,5.8,10.6L5.8,10.6z
	 M3,21h5v0.3c0.3,0.2,0.3,0.4,0.3,0.7H2.9c0-0.3,0-0.5,0.1-0.7V21z"/>
	 </g>
	 <g>
<path d="M20,31v1h9v-1h2v5h-2v-2h-9v2h-2v-5H20z"/>
<path d="M28.7,38c0.3,0,0.4-0.2,0.4-0.5V37H31v2.6c0,0-0.7,1.4-1.5,1.4h-8.9c-0.2,0-0.4,0.1-0.7,0.4V42H18v-2.7
	c0-0.7,0.5-1.3,1.2-1.3H28.7z"/>
<path d="M28.7,43c0.3,0,0.4-0.2,0.4-0.5V42H31v2.5c0,0-0.7,1.4-1.5,1.5h-8.9c-0.2-0.1-0.4,0.1-0.7,0.4V47H18v-2.7
	c0-0.7,0.5-1.3,1.2-1.3H28.7z"/>
<polygon points="30,20 26,20 26,16 23,16 23,20 19,20 19,23 23,23 23,27 26,27 26,23 30,23 "/>
</g>
</g></svg>
